<svg xmlns="http://www.w3.org/2000/svg" width="58" height="58" viewBox="0 0 58 58">
  <g id="cuidado-personal" transform="translate(-16 -16)">
    <path id="Trazado_1248" data-name="Trazado 1248" d="M73.033,16H63.367a.967.967,0,0,0-.967.967v4.057a32.647,32.647,0,0,0-34.8,0V16.967A.967.967,0,0,0,26.633,16H16.967a.967.967,0,0,0-.967.967V46.987a4.858,4.858,0,0,0,.51,2.162l6.618,13.235a3.991,3.991,0,0,0,5.377,1.776,25.584,25.584,0,0,0,6.726,6.68A17.747,17.747,0,0,0,45,74a17.75,17.75,0,0,0,9.769-3.159,25.587,25.587,0,0,0,6.726-6.68,3.962,3.962,0,0,0,1.8.432,4,4,0,0,0,3.578-2.209L73.49,49.148A4.857,4.857,0,0,0,74,46.987V16.967A.967.967,0,0,0,73.033,16ZM58.86,35.362a23,23,0,0,0-10-3.646,22.558,22.558,0,0,0,3.679-3.849,19.9,19.9,0,0,0,3.932-7.748A27.946,27.946,0,0,1,62.4,23.366v5.767l-.166.166a12.553,12.553,0,0,0-3.375,6.063ZM45,17.933a31.087,31.087,0,0,1,9.626,1.518c-.25,1.838-1.644,4.647-3.628,7.243-2.182,2.855-4.593,4.773-6,4.773a24.555,24.555,0,0,0-13.86,3.9A12.552,12.552,0,0,0,27.766,29.3l-.166-.166V23.366A29.884,29.884,0,0,1,45,17.933ZM26.257,62.61a2.05,2.05,0,0,1-1.4-1.09L18.24,48.284a2.914,2.914,0,0,1-.306-1.3V17.933h7.733v11.6a.967.967,0,0,0,.283.684l.449.449a10.632,10.632,0,0,1,3.135,7.567V47.9a1.933,1.933,0,1,1-3.867,0V41.133a.967.967,0,0,0-1.933,0v8.7a.966.966,0,0,0,.1.432l4.706,9.412a2.059,2.059,0,0,1-2.284,2.932ZM45,72.067c-5.456,0-11.134-3.5-15.028-9.186a4.017,4.017,0,0,0,.3-4.068l-3.577-7.153A3.868,3.868,0,0,0,31.467,47.9V38.233c0-.236-.007-.471-.02-.7A22.088,22.088,0,0,1,45,33.4a22.088,22.088,0,0,1,13.553,4.128c-.013.234-.02.469-.02.7V47.9a3.868,3.868,0,0,0,4.773,3.759L59.73,58.813a4.017,4.017,0,0,0,.3,4.068C56.134,68.571,50.456,72.067,45,72.067ZM72.067,46.987a2.914,2.914,0,0,1-.306,1.3L65.143,61.52a2.06,2.06,0,1,1-3.684-1.842l4.706-9.412a.966.966,0,0,0,.1-.432v-8.7a.967.967,0,0,0-1.933,0V47.9a1.933,1.933,0,0,1-3.867,0V38.233A10.632,10.632,0,0,1,63.6,30.666l.449-.449a.967.967,0,0,0,.283-.684v-11.6h7.733Z" fill="#0087ae"/>
    <path id="Trazado_1249" data-name="Trazado 1249" d="M165.8,288.967a.967.967,0,1,0-1.933,0,.967.967,0,0,1-1.933,0,.967.967,0,1,0-1.933,0,2.9,2.9,0,1,0,5.8,0Z" transform="translate(-126.6 -239.133)" fill="#0087ae"/>
    <path id="Trazado_1250" data-name="Trazado 1250" d="M308.833,288a.967.967,0,0,0-.967.967.967.967,0,0,1-1.933,0,.967.967,0,1,0-1.933,0,2.9,2.9,0,0,0,5.8,0A.967.967,0,0,0,308.833,288Z" transform="translate(-253.2 -239.133)" fill="#0087ae"/>
    <path id="Trazado_1251" data-name="Trazado 1251" d="M206.879,368.064a.967.967,0,0,0-1.273.5,6.9,6.9,0,0,1-11.764,0,.967.967,0,1,0-1.769.779,8.809,8.809,0,0,0,15.3,0A.967.967,0,0,0,206.879,368.064Z" transform="translate(-154.725 -309.45)" fill="#0087ae"/>
    <path id="Trazado_1252" data-name="Trazado 1252" d="M232.967,309.8h3.867a.967.967,0,1,0,0-1.933h-2.9v-2.9a.967.967,0,0,0-1.933,0v3.867A.967.967,0,0,0,232.967,309.8Z" transform="translate(-189.9 -253.2)" fill="#0087ae"/>
  </g>
</svg>
