<svg xmlns="http://www.w3.org/2000/svg" width="65.713" height="50" viewBox="0 0 65.713 50">
  <g id="educacion" transform="translate(0 -41.75)">
    <g id="Grupo_855" data-name="Grupo 855" transform="translate(0 41.75)">
      <path id="Trazado_1228" data-name="Trazado 1228" d="M63.53,55.393,37.335,42.6a10.728,10.728,0,0,0-8.355,0l-26.8,12.8C.3,56.3,0,57.576,0,58.254s.3,1.882,2.183,2.86l2.183,1.054V74.211A3.688,3.688,0,0,0,2.032,77.6a3.737,3.737,0,0,0,2.258,3.387L.9,91.75h9.484L7,80.986a3.647,3.647,0,0,0-.075-6.775V63.447L10.915,65.4V81.061a1.214,1.214,0,0,0,.226.677A27.338,27.338,0,0,0,32.819,91.75a27.182,27.182,0,0,0,21.6-10.011,1.214,1.214,0,0,0,.226-.677V65.48l8.882-4.366c1.882-.9,2.183-2.183,2.183-2.86A3.365,3.365,0,0,0,63.53,55.393ZM52.239,80.685a25.171,25.171,0,0,1-19.42,8.732A25.171,25.171,0,0,1,13.4,80.685V66.458L28.98,73.91a10.151,10.151,0,0,0,4.14.828,9.166,9.166,0,0,0,4.215-.9l14.9-7.3ZM62.476,59.006l-9.033,4.441a.865.865,0,0,0-.828.452L36.282,71.8a8.357,8.357,0,0,1-6.323,0l-20.1-9.635,23.109-2.71a1.172,1.172,0,1,0-.226-2.333l-26.8,3.161-2.71-1.28a1.518,1.518,0,0,1-.828-.677c0-.075.151-.376.828-.677l26.8-12.872a7.776,7.776,0,0,1,3.086-.6,7.63,7.63,0,0,1,3.161.6l26.195,12.8c.677.3.828.6.828.753A2.07,2.07,0,0,1,62.476,59.006Z" transform="translate(0 -41.75)" fill="#0087ae"/>
    </g>
  </g>
</svg>
