<svg xmlns="http://www.w3.org/2000/svg" width="61.913" height="56" viewBox="0 0 61.913 56">
  <g id="hogar-servicios" transform="translate(0 -24.449)">
    <g id="Grupo_883" data-name="Grupo 883" transform="translate(0 24.45)">
      <path id="Trazado_1247" data-name="Trazado 1247" d="M61.912,32.111c0-.007,0-.014,0-.02,0-.027,0-.054-.005-.08,0-.01,0-.019,0-.029s-.008-.048-.014-.072l-.007-.028c-.007-.026-.015-.051-.024-.075l0-.014-2.46-6.3a1.633,1.633,0,0,0-1.53-1.045H53.382a.884.884,0,1,0,0,1.768h4.394l1.958,5.012H41.224l-1.16-5.012H46.9a.884.884,0,1,0,0-1.768H11.134A1.633,1.633,0,0,0,9.6,25.5l-2.46,6.3,0,.014c-.009.025-.017.05-.024.075l-.007.028c-.006.024-.01.048-.014.072s0,.019,0,.029c0,.026,0,.053-.005.08,0,.007,0,.014,0,.02s0,0,0,0V45.1a.884.884,0,1,0,1.768,0V33h18.74V46.436a1.338,1.338,0,0,0,2.225,1L34.5,43.29l4.682,4.148a1.338,1.338,0,0,0,2.225-1V33h18.74V72.652A1.152,1.152,0,0,1,58.994,73.8H42.784c0-.01,0-.02,0-.03,0-.079,0-.159-.011-.237a3.181,3.181,0,0,0,3.745-4.309c-.031-.074-.065-.145-.1-.216l-.02-.039q-.053-.1-.113-.2l-.024-.037c-.042-.066-.086-.13-.132-.192l0,0c-.046-.061-.1-.12-.145-.178l-.028-.032q-.075-.083-.156-.161l-.032-.03c-.056-.053-.114-.1-.174-.153l-.006,0c-.059-.048-.12-.093-.183-.136l-.034-.024q-.094-.063-.192-.12l-.016-.01a3.183,3.183,0,0,0-.6-5.217q-.139-.073-.287-.134l-13.76-5.61,6.4-1.982a2.9,2.9,0,0,0,1.913-3.623,2.839,2.839,0,0,0-.97-1.4,2.976,2.976,0,0,0-2.442-.573l-.013,0c-.049.011-4.959,1.115-10.087,2.115l-.668.129-.516.1-.146.028-.869.163-.336.062c-6.44,1.186-8.249,1.208-8.751,1.14H14.03l-.022,0-.015,0-.01,0a.684.684,0,0,1-.075-.017l-.145-.059.181-.443a1.749,1.749,0,0,0-.007-1.347,1.78,1.78,0,0,0-.165-.306,1.748,1.748,0,0,0-.792-.641L8.23,48.137a1.76,1.76,0,0,0-2.294.965L.13,63.342A1.762,1.762,0,0,0,1.1,65.636l4.749,1.936a1.76,1.76,0,0,0,2.294-.965l.044-.107,1.095.446h0a9.711,9.711,0,0,1,2.847,1.792q.228.206.442.427t.415.455q.1.117.2.237A11.487,11.487,0,0,0,17.792,73.3l1.232.5H10a1.152,1.152,0,0,1-1.151-1.151V70.415a.884.884,0,0,0-1.768,0v2.237A2.922,2.922,0,0,0,10,75.571H23.361l11.389,4.644a3.18,3.18,0,0,0,4.363-3.286,3.284,3.284,0,0,0,1.763-.233,3.152,3.152,0,0,0,1.368-1.125h16.75a2.922,2.922,0,0,0,2.919-2.919V32.114A.03.03,0,0,1,61.912,32.111ZM30.747,26.218h7.5l1.16,5.012H29.587ZM27.772,31.23H9.262l1.958-5.012H28.932ZM39.637,45.48h0l-4.252-3.767a1.339,1.339,0,0,0-1.774,0L29.359,45.48V33H39.637ZM6.5,65.932,1.77,64l5.8-14.225,4.733,1.93Zm35.32,5.335-1.015-.414h0L30.239,66.544a.884.884,0,0,0-.667,1.637L40.139,72.49a1.408,1.408,0,0,1,.128.06l.034.02c.029.016.058.033.086.051l.038.028c.024.017.049.035.072.053s.026.024.04.036.042.036.061.055.025.028.038.042.036.038.053.058.024.032.036.048.031.039.045.06.022.035.033.053.026.04.037.061.019.039.029.058.021.041.03.062.016.041.024.062.017.041.024.063.012.043.018.065.013.042.018.064.008.044.012.066.009.044.011.066,0,.045.006.067,0,.045.005.067,0,.045,0,.067,0,.046,0,.069,0,.044-.007.066S41,74,41,74.027s-.009.043-.013.064-.009.048-.016.071-.013.042-.02.063-.014.047-.023.071l-.022.049,0,.011a1.374,1.374,0,0,1-.726.716,1.5,1.5,0,0,1-1.151.015l-1.872-.763-.026-.009L37.1,74.3,28.5,70.8a.884.884,0,0,0-.668,1.637l8.595,3.5.028.01.025.011a1.413,1.413,0,0,1-1.067,2.617L23.869,73.869h0L18.46,71.663a9.713,9.713,0,0,1-3.9-2.911A11.483,11.483,0,0,0,9.946,65.31h0l-1.1-.447,2.184-5.355L13.1,54.447l.152.062a2.3,2.3,0,0,0,.9.162,22.921,22.921,0,0,0,3.86-.328c1.385-.2,3.084-.479,5.068-.844l.147-.027.281-.052.221-.041.255-.048.274-.052.222-.042.341-.065.177-.034.535-.1c5.11-.994,10.043-2.1,10.264-2.15.022,0,.044-.007.066-.011a1.161,1.161,0,0,1,1.287.774,1.133,1.133,0,0,1-.746,1.414l-8.765,2.713a.884.884,0,0,0-.072,1.663l16.047,6.543a1.413,1.413,0,0,1-.526,2.722h-.008c-.043,0-.086,0-.129-.006l-.038-.005c-.033,0-.066-.008-.1-.014s-.041-.01-.061-.015-.049-.011-.073-.018-.05-.017-.074-.026-.04-.013-.059-.021L31.973,62.29a.884.884,0,0,0-.667,1.637l12.812,5.224a1.421,1.421,0,0,1,.247.13,1.414,1.414,0,0,1,.574,1.579q-.02.067-.047.133a1.421,1.421,0,0,1-.061.131,1.446,1.446,0,0,1-.328.407l-.023.021a1.421,1.421,0,0,1-1.43.216Z" transform="translate(0 -24.45)" fill="#0087ae"/>
    </g>
  </g>
</svg>
