<svg xmlns="http://www.w3.org/2000/svg" xmlns:xlink="http://www.w3.org/1999/xlink" width="142.789" height="54" viewBox="0 0 142.789 54">
  <defs>
    <linearGradient id="linear-gradient" x1="0.5" y1="0.141" x2="0.5" y2="3.466" gradientUnits="objectBoundingBox">
      <stop offset="0.322" stop-color="#002e62"/>
      <stop offset="0.325" stop-color="#002d61"/>
      <stop offset="0.434" stop-color="#002753"/>
      <stop offset="0.526" stop-color="#00254e"/>
      <stop offset="1" stop-color="#001a39"/>
    </linearGradient>
    <linearGradient id="linear-gradient-2" x1="0.5" y1="-0.17" x2="0.5" y2="4.269" xlink:href="#linear-gradient"/>
    <linearGradient id="linear-gradient-3" x1="0.5" y1="-0.327" x2="0.5" y2="1.681" xlink:href="#linear-gradient"/>
    <linearGradient id="linear-gradient-4" x1="0.5" y1="0.029" x2="0.5" y2="1.498" xlink:href="#linear-gradient"/>
    <linearGradient id="linear-gradient-8" x1="0.5" y1="0.014" x2="0.5" y2="1.491" xlink:href="#linear-gradient"/>
  </defs>
  <g id="logo-quiero_" data-name="logo-quiero+" transform="translate(-183.202 -190.689)">
    <g id="Grupo_1214" data-name="Grupo 1214" transform="translate(239.151 203.817)">
      <path id="Trazado_1341" data-name="Trazado 1341" d="M351.756,231.559a1.322,1.322,0,0,1,2.645,0v8.272h4.418c.758,0,1.371.387,1.371,1.113s-.613,1.113-1.371,1.113H353.3c-.935,0-1.548-.371-1.548-1.548Z" transform="translate(-351.756 -230.237)" fill="url(#linear-gradient)"/>
      <path id="Trazado_1342" data-name="Trazado 1342" d="M380.933,239.807a4.111,4.111,0,0,1,4.354,4.418c0,2.354-1.145,4.434-4.354,4.434s-4.354-2.08-4.354-4.434A4.111,4.111,0,0,1,380.933,239.807Zm0,7.111c1.4,0,2-1.257,2-2.693,0-1.532-.629-2.677-2-2.677s-2,1.145-2,2.677C378.933,245.661,379.53,246.918,380.933,246.918Z" transform="translate(-368.339 -236.63)" fill="url(#linear-gradient-2)"/>
    </g>
    <g id="Grupo_1215" data-name="Grupo 1215" transform="translate(238.256 213.246)">
      <path id="Trazado_1343" data-name="Trazado 1343" d="M369.409,303.107a3.3,3.3,0,0,1-.678,2.2,2.986,2.986,0,0,1-4.07,0,3.3,3.3,0,0,1-.678-2.2v-.781H363.9a10.019,10.019,0,0,1-3.125,2.8,8.388,8.388,0,0,1-4.152.986,9.845,9.845,0,0,1-2.776-.39,6.558,6.558,0,0,1-2.425-1.316,6.341,6.341,0,0,1-1.726-2.467,9.72,9.72,0,0,1-.638-3.721V286.538a3.314,3.314,0,0,1,.679-2.179,3.692,3.692,0,0,1,4.646,0,3.315,3.315,0,0,1,.678,2.179v10.484a4.557,4.557,0,0,0,.946,3.022,3.485,3.485,0,0,0,2.837,1.13,4.559,4.559,0,0,0,3.144-1.295,4.424,4.424,0,0,0,1.419-3.433v-9.909a3.316,3.316,0,0,1,.678-2.179,3.692,3.692,0,0,1,4.646,0,3.319,3.319,0,0,1,.678,2.179Z" transform="translate(-349.058 -275.273)" fill="url(#linear-gradient-3)"/>
      <path id="Trazado_1344" data-name="Trazado 1344" d="M417.589,259.547a3.176,3.176,0,1,1-.9,2.22A3.016,3.016,0,0,1,417.589,259.547Zm-.781,10.36a3.317,3.317,0,0,1,.678-2.179,3.693,3.693,0,0,1,4.646,0,3.317,3.317,0,0,1,.678,2.179v16.569a3.317,3.317,0,0,1-.678,2.179,3.695,3.695,0,0,1-4.646,0,3.316,3.316,0,0,1-.678-2.179Z" transform="translate(-394.236 -258.642)" fill="url(#linear-gradient-4)"/>
      <path id="Trazado_1345" data-name="Trazado 1345" d="M445.106,295.953a5.166,5.166,0,0,0,5.551,5.468,6.234,6.234,0,0,0,2.692-.473,9.044,9.044,0,0,0,1.953-1.336,6.528,6.528,0,0,1,1.11-.864,2.5,2.5,0,0,1,2.94.452,2.269,2.269,0,0,1,.719,1.6,3.326,3.326,0,0,1-.9,2.282,7.214,7.214,0,0,1-2.365,1.686,13.777,13.777,0,0,1-3.083,1.007,15.466,15.466,0,0,1-3.063.329,13.525,13.525,0,0,1-5.221-.924,9.839,9.839,0,0,1-3.618-2.487,10.042,10.042,0,0,1-2.056-3.495,12.294,12.294,0,0,1-.657-3.988,11.778,11.778,0,0,1,3.043-8.49,10.936,10.936,0,0,1,8.3-3.187,12.3,12.3,0,0,1,4.543.8,9.993,9.993,0,0,1,3.453,2.22,9.661,9.661,0,0,1,2.138,3.166,9.459,9.459,0,0,1,.72,3.639,2.863,2.863,0,0,1-.555,2.055,3.025,3.025,0,0,1-2.077.534Zm10.526-3.453a5.424,5.424,0,0,0-1.666-3.433,4.778,4.778,0,0,0-3.391-1.336A5.159,5.159,0,0,0,447,288.984a6.4,6.4,0,0,0-1.891,3.516Z" transform="translate(-409.214 -275.273)" fill="url(#linear-gradient-3)"/>
      <path id="Trazado_1346" data-name="Trazado 1346" d="M509.95,286.333a2.734,2.734,0,0,1,.76-2.056,2.947,2.947,0,0,1,3.905,0,2.738,2.738,0,0,1,.761,2.056v2.3h.082a9.935,9.935,0,0,1,1.788-3.659,3.89,3.89,0,0,1,3.186-1.439,3.428,3.428,0,0,1,2.365.822,2.682,2.682,0,0,1,.925,2.1,2.843,2.843,0,0,1-.843,2.283,3.148,3.148,0,0,1-2.117.719h-1.069a3.075,3.075,0,0,0-2.817,1.522,10.46,10.46,0,0,0-.925,5.139v6.989a3.315,3.315,0,0,1-.679,2.18,3.695,3.695,0,0,1-4.646,0,3.318,3.318,0,0,1-.678-2.18Z" transform="translate(-456.544 -275.273)" fill="url(#linear-gradient-3)"/>
      <path id="Trazado_1347" data-name="Trazado 1347" d="M547.206,290.341a10.23,10.23,0,0,1,2.118-3.556,12.136,12.136,0,0,1,16.528,0,10.219,10.219,0,0,1,2.117,3.556,13.3,13.3,0,0,1,.719,4.461,15.021,15.021,0,0,1-.616,4.378,10.012,10.012,0,0,1-1.911,3.578,8.916,8.916,0,0,1-3.454,2.446,15.044,15.044,0,0,1-10.217.021,8.811,8.811,0,0,1-3.454-2.446,10.042,10.042,0,0,1-1.933-3.6,15.054,15.054,0,0,1-.617-4.378A13.283,13.283,0,0,1,547.206,290.341Zm6.558,9.374a4.72,4.72,0,0,0,7.647,0,8.823,8.823,0,0,0,1.274-4.913,8.553,8.553,0,0,0-1.294-4.954,4.8,4.8,0,0,0-7.606,0,8.545,8.545,0,0,0-1.3,4.954A8.818,8.818,0,0,0,553.763,299.715Z" transform="translate(-480.952 -275.273)" fill="url(#linear-gradient-3)"/>
    </g>
    <path id="Trazado_1348" data-name="Trazado 1348" d="M258.454,269a90.118,90.118,0,0,0,1.6-18.611l.009-.009a21.48,21.48,0,0,0-.781-5.941.109.109,0,0,1-.005-.045c-.175-.606-.392-1.2-.606-1.782a.723.723,0,0,0-.062-.165c-.21-.536-.468-1.076-.711-1.6a1.12,1.12,0,0,1-.136-.275c-.251-.46-.541-.953-.834-1.4a2.765,2.765,0,0,0-.216-.389c-.3-.435-.614-.876-.953-1.283-.094-.146-.18-.269-.275-.4a20.3,20.3,0,0,0-1.413-1.567l-.027-.028a20.565,20.565,0,0,0-29.082,29.084l.027.028a16.9,16.9,0,0,0,1.576,1.4c.12.1.261.19.388.285a14.384,14.384,0,0,0,1.308.961c.106.071.233.133.356.218.459.284.942.578,1.43.824.086.052.163.077.255.136.531.233,1.067.494,1.6.721.053.015.119.033.166.043.587.224,1.185.423,1.783.607.025.009.043.009.053.015a20.746,20.746,0,0,0,5.931.771h0a89.975,89.975,0,0,0,18.611-1.6" transform="translate(-23.884 -25.921)" fill="#00a5aa"/>
    <path id="Trazado_1349" data-name="Trazado 1349" d="M278.974,289.5a67.145,67.145,0,0,0,1.194-13.877l.006-.005a15.952,15.952,0,0,0-.582-4.431.066.066,0,0,1,0-.033c-.13-.452-.292-.9-.451-1.328a.7.7,0,0,0-.046-.123c-.156-.4-.352-.8-.529-1.191a.771.771,0,0,1-.1-.2c-.188-.344-.4-.711-.621-1.046a1.679,1.679,0,0,0-.162-.29,11.618,11.618,0,0,0-.708-.957c-.07-.11-.134-.2-.207-.3a15.059,15.059,0,0,0-1.051-1.168l-.022-.021A15.333,15.333,0,0,0,254,286.215l.02.022a12.555,12.555,0,0,0,1.174,1.044c.09.078.2.142.292.213a10.469,10.469,0,0,0,.976.717c.076.053.171.1.261.163.343.211.7.43,1.069.613.063.037.121.056.191.1.394.175.793.367,1.2.537a1.2,1.2,0,0,0,.122.033c.44.167.884.315,1.329.452.021.007.032.007.038.011a15.508,15.508,0,0,0,4.424.575h0a66.9,66.9,0,0,0,13.877-1.194" transform="translate(-44.306 -46.335)" fill="url(#linear-gradient-8)"/>
    <path id="Trazado_1350" data-name="Trazado 1350" d="M281.063,201.547a5.014,5.014,0,1,1-5.013-5.014A5.015,5.015,0,0,1,281.063,201.547Z" transform="translate(-58.678 -3.904)" fill="#e6524d"/>
    <path id="Trazado_1351" data-name="Trazado 1351" d="M193.228,205.673a5.013,5.013,0,1,1-5.015-5.014A5.014,5.014,0,0,1,193.228,205.673Z" transform="translate(0 -6.66)" fill="#91b51c"/>
    <path id="Trazado_1352" data-name="Trazado 1352" d="M235.675,198.073a7.384,7.384,0,1,1-7.384-7.383A7.383,7.383,0,0,1,235.675,198.073Z" transform="translate(-25.19 0)" fill="#00a5aa"/>
    <path id="Trazado_1353" data-name="Trazado 1353" d="M214.648,245.856a2.92,2.92,0,1,1-2.92-2.92A2.92,2.92,0,0,1,214.648,245.856Z" transform="translate(-17.106 -34.904)" fill="#006892"/>
  </g>
</svg>
