<svg id="moda-calzado" xmlns="http://www.w3.org/2000/svg" width="56" height="56" viewBox="0 0 56 56">
  <g id="Grupo_856" data-name="Grupo 856">
    <path id="Trazado_1229" data-name="Trazado 1229" d="M53.738,17.108a5.956,5.956,0,0,0-4.964-2.656h-.511l-8.521,14.2V19.871A19.871,19.871,0,1,0,0,19.871V42.452a2.713,2.713,0,0,0,2.71,2.71H17a25.539,25.539,0,0,1-6.294,2.315,3.27,3.27,0,0,0-2.577,3.212,3.308,3.308,0,0,0,.658,1.974A8.382,8.382,0,0,0,15.462,56H30.519a6.311,6.311,0,0,0,5.26-2.815,32.384,32.384,0,0,0,3.367-6.572L39.7,45.13a30.542,30.542,0,0,1,2.076-4.419l1.867-3.27a.812.812,0,0,1,1.517.4V56h5.419V48.038a37.336,37.336,0,0,1,.724-7.313l.061-.31a37.281,37.281,0,0,1,3.212-9.36A13.523,13.523,0,0,0,56,25.035v-.457A13.424,13.424,0,0,0,53.738,17.108ZM19.871,1.806A18.085,18.085,0,0,1,37.935,19.871H36.129a16.258,16.258,0,0,0-32.516,0H1.806A18.085,18.085,0,0,1,19.871,1.806ZM34.323,19.871H5.419a14.452,14.452,0,0,1,28.9,0ZM1.806,21.677H37.935V28.2L25.29,31.36V27.1H14.452V31.36L1.806,28.2ZM16.258,30.71V28.9h7.226V30.71Zm7.226,1.806v2.71a.9.9,0,0,1-.9.9H17.161a.9.9,0,0,1-.9-.9v-2.71ZM2.71,43.355a.9.9,0,0,1-.9-.9V30.059l12.645,3.161v2.005a2.713,2.713,0,0,0,2.71,2.71h5.419a2.713,2.713,0,0,0,2.71-2.71V33.221l12.645-3.161v1.554h.031l-1.348,2.245a33.3,33.3,0,0,1-5.01,6.417,7.382,7.382,0,0,1-5.254,2.177,7.477,7.477,0,0,1-3.317-.78l-.577-.294-.952.791c-.527.439-1.078.848-1.638,1.243v-.056Zm41.927-8.1a2.518,2.518,0,0,0-.286-.029,2.626,2.626,0,0,0-2.273,1.319l-1.867,3.27a32.28,32.28,0,0,0-2.2,4.681l-.555,1.483c-.26.694-.555,1.374-.864,2.047l-.01-.017A22.737,22.737,0,0,1,24.5,51.484H16.258V53.29H24.5a24.175,24.175,0,0,0,10.6-2.43c-.266.447-.539.889-.827,1.321a4.509,4.509,0,0,1-3.758,2.011H15.462a6.547,6.547,0,0,1-3.289-.9h2.278V51.484H10.183a1.46,1.46,0,0,1,.914-2.243,27.453,27.453,0,0,0,11.569-5.685l.052-.044a9.3,9.3,0,0,0,3.636.746,9.178,9.178,0,0,0,6.532-2.705,35.163,35.163,0,0,0,5.282-6.764l11.1-18.5a4.151,4.151,0,0,1,2.967,1.824,11.629,11.629,0,0,1,1.78,4.471A84.1,84.1,0,0,0,44.637,35.255Zm8.326-5.007A39.111,39.111,0,0,0,49.6,40.063l-.061.31a39.163,39.163,0,0,0-.76,7.665v6.155H46.968V37.843a2.6,2.6,0,0,0-.707-1.778,82.333,82.333,0,0,1,7.927-10.923A11.721,11.721,0,0,1,52.962,30.248Z" fill="#0087ae"/>
  </g>
</svg>
