<svg xmlns="http://www.w3.org/2000/svg" width="63.022" height="60" viewBox="0 0 63.022 60">
  <g id="salud" transform="translate(0 -11.508)">
    <g id="Grupo_852" data-name="Grupo 852" transform="translate(0 11.508)">
      <g id="Grupo_851" data-name="Grupo 851" transform="translate(0 0)">
        <path id="Trazado_1226" data-name="Trazado 1226" d="M62.946,45.129A7.353,7.353,0,0,0,56.719,38.9v-1.91c0-5.269-4-9.558-8.928-9.558-4.781,0-8.784,4.159-8.928,9.272h.061l-.061.011v20.7c0,6.617-4.947,11.991-11.029,11.991S16.806,64.026,16.806,57.417V55.624c1.523,0,3.151-1.1,3.151-4.2V48.781C26.7,47.057,31.51,41.269,31.51,34.706v-2.19h-2.1l-.044-13.67A5.257,5.257,0,0,0,25.045,13.7a3.134,3.134,0,1,0-.071,2.142,3.151,3.151,0,0,1,2.289,3.006l.047,13.664h-2.1v2.22a8.352,8.352,0,0,1-6.046,7.837,9.551,9.551,0,0,1-5.777,0,8.348,8.348,0,0,1-6.033-7.837v-2.22H4.2V18.861a3.151,3.151,0,0,1,2.332-3.029A3.166,3.166,0,1,0,6.468,13.7,5.252,5.252,0,0,0,2.1,18.861V32.516H0V34.7c0,6.57,4.816,12.361,11.554,14.08v2.642c0,3.1,1.628,4.2,3.151,4.2v1.793c0,7.773,5.889,14.091,13.129,14.091s13.129-6.326,13.129-14.091V36.768c.105-3.986,3.17-7.23,6.827-7.23,3.764,0,6.827,3.344,6.827,7.457V38.9a7.352,7.352,0,1,0,8.327,6.227ZM22.057,15.71a1.05,1.05,0,1,1,1.05-1.05A1.05,1.05,0,0,1,22.057,15.71Zm-12.6-2.1A1.05,1.05,0,1,1,8.4,14.66,1.05,1.05,0,0,1,9.453,13.61ZM2.1,34.7v-.084H5.252v.12a10.436,10.436,0,0,0,7.5,9.834,11.688,11.688,0,0,0,7.056,0,10.438,10.438,0,0,0,7.5-9.834v-.12h2.1V34.7c0,5.843-4.5,10.985-10.714,12.228a14.983,14.983,0,0,1-4.431.217,13.72,13.72,0,0,1-1.451-.22C6.6,45.685,2.1,40.544,2.1,34.7ZM14.7,53.523c-.945,0-1.05-1.47-1.05-2.1V49.193c.084.011.17.015.255.023.105.012.21.02.315.029.5.044,1,.074,1.5.075h.053c.5,0,1-.03,1.5-.075.105-.009.216-.018.325-.029.083-.009.169-.013.252-.023v2.229c0,.63-.105,2.1-1.05,2.1Zm40.964-2.1A5.252,5.252,0,1,1,60.92,46.17,5.252,5.252,0,0,1,55.668,51.422Z" transform="translate(0 -11.508)" fill="#0087ae"/>
      </g>
    </g>
    <g id="Grupo_854" data-name="Grupo 854" transform="translate(52.517 43.019)">
      <g id="Grupo_853" data-name="Grupo 853" transform="translate(0 0)">
        <path id="Trazado_1227" data-name="Trazado 1227" d="M403.151,251.515a3.151,3.151,0,1,0,3.151,3.151A3.151,3.151,0,0,0,403.151,251.515Zm0,4.2a1.05,1.05,0,1,1,1.05-1.05A1.05,1.05,0,0,1,403.151,255.716Z" transform="translate(-400 -251.515)" fill="#0087ae"/>
      </g>
    </g>
  </g>
</svg>
