<svg xmlns="http://www.w3.org/2000/svg" width="57.293" height="60" viewBox="0 0 57.293 60">
  <g id="viaje" transform="translate(-10.585)">
    <g id="Grupo_858" data-name="Grupo 858" transform="translate(16.723 17.156)">
      <g id="Grupo_857" data-name="Grupo 857" transform="translate(0)">
        <path id="Trazado_1230" data-name="Trazado 1230" d="M70.862,134.152a12.277,12.277,0,1,0,12.277,12.277A12.277,12.277,0,0,0,70.862,134.152Zm9.086,7.673H75.523a19.875,19.875,0,0,0-1.759-5.156A10.211,10.211,0,0,1,79.948,141.825Zm-6.017,4.6a21.751,21.751,0,0,1-.162,2.558H67.956a20.284,20.284,0,0,1,0-5.115h5.817A21.982,21.982,0,0,1,73.931,146.429Zm-3.367-10.2c.1,0,.2-.03.3-.03s.2.027.3.03a17,17,0,0,1,2.267,5.6H68.295A16.978,16.978,0,0,1,70.564,136.228Zm-2.6.441a19.934,19.934,0,0,0-1.757,5.156H61.776A10.214,10.214,0,0,1,67.96,136.669Zm-7.328,9.76a10.107,10.107,0,0,1,.363-2.558h4.9a24.139,24.139,0,0,0-.145,2.558,23.747,23.747,0,0,0,.148,2.558h-4.9A10.107,10.107,0,0,1,60.631,146.429Zm1.145,4.6h4.431a20.289,20.289,0,0,0,1.749,5.155A10.212,10.212,0,0,1,61.776,151.033Zm9.383,5.6c-.1,0-.2.03-.3.03s-.2-.027-.3-.03a17.125,17.125,0,0,1-2.267-5.6h5.129A17.09,17.09,0,0,1,71.159,156.63Zm2.609-.442a20.231,20.231,0,0,0,1.749-5.155h4.431A10.214,10.214,0,0,1,73.768,156.188Zm2.062-7.2a23.849,23.849,0,0,0,.147-2.558,24.143,24.143,0,0,0-.144-2.558h4.9a9.188,9.188,0,0,1,0,5.115Z" transform="translate(-58.585 -134.152)" fill="#0087ae"/>
      </g>
    </g>
    <g id="Grupo_860" data-name="Grupo 860" transform="translate(18.77 47.849)">
      <g id="Grupo_859" data-name="Grupo 859" transform="translate(0)">
        <rect id="Rectángulo_856" data-name="Rectángulo 856" width="20.462" height="2.046" fill="#0087ae"/>
      </g>
    </g>
    <g id="Grupo_862" data-name="Grupo 862" transform="translate(52.417 33.109)">
      <g id="Grupo_861" data-name="Grupo 861">
        <rect id="Rectángulo_857" data-name="Rectángulo 857" width="4.092" height="2.046" transform="matrix(0.259, -0.966, 0.966, 0.259, 0, 3.953)" fill="#0087ae"/>
      </g>
    </g>
    <g id="Grupo_864" data-name="Grupo 864" transform="translate(47.65 41.011)">
      <g id="Grupo_863" data-name="Grupo 863">
        <rect id="Rectángulo_858" data-name="Rectángulo 858" width="14.323" height="2.046" transform="matrix(0.259, -0.966, 0.966, 0.259, 0, 13.834)" fill="#0087ae"/>
      </g>
    </g>
    <g id="Grupo_866" data-name="Grupo 866" transform="translate(10.585)">
      <g id="Grupo_865" data-name="Grupo 865" transform="translate(0)">
        <path id="Trazado_1231" data-name="Trazado 1231" d="M64.843,6.5,41.126.14a4.088,4.088,0,0,0-5.012,2.894l-2.139,7.983H12.631a2.046,2.046,0,0,0-2.046,2.046V53.987a2.046,2.046,0,0,0,2.046,2.046H36.265l14.28,3.826a4.088,4.088,0,0,0,5.012-2.894L67.737,11.508A4.092,4.092,0,0,0,64.843,6.5ZM12.631,53.987V13.064H43.324A2.048,2.048,0,0,1,45.37,15.11V51.941a2.048,2.048,0,0,1-2.046,2.046Zm53.13-43.009L53.58,56.436a2.041,2.041,0,0,1-2.506,1.447l-7.135-1.912a4.082,4.082,0,0,0,3.477-4.03V35.72L48.464,36l1.06-3.953-1.977-.53-.131.489V15.746l2.088.56,2.42,7.911,1.694.454-.16-7.306,2.993.8,1.315,2.319,1.129.3L58.7,17.56l1.783-2.7-1.129-.3-2.3,1.351-2.993-.8L57.855,8.86l-1.694-.454-6.051,5.642-3.192-.855a4.075,4.075,0,0,0-3.594-2.175H36.093l2-7.454A2.041,2.041,0,0,1,40.6,2.117L64.314,8.472a2.047,2.047,0,0,1,1.447,2.506Z" transform="translate(-10.585)" fill="#0087ae"/>
      </g>
    </g>
  </g>
</svg>
